<svg width="56" height="8" viewBox="0 0 56 8" fill="#FFC93E" xmlns="http://www.w3.org/2000/svg">
<path fill-rule="evenodd" clip-rule="evenodd" d="M3.09735 2.01885C3.06784 2.05073 3.07171 2.08052 3.11767 2.15577C3.26379 2.36212 3.44691 2.53453 3.65608 2.66272L3.77944 2.72857L4.17467 2.73537L4.5699 2.74216L4.70051 2.81481C4.7463 2.83416 4.78819 2.86291 4.82387 2.89947C4.82 2.90731 4.79484 2.91306 4.76823 2.91306C4.75639 2.91178 4.74443 2.91305 4.73305 2.91682C4.72167 2.92059 4.7111 2.92678 4.70196 2.93501C4.68648 2.9554 4.69325 2.9648 4.75421 3.02125C4.79194 3.05522 4.84031 3.10016 4.86208 3.12055L4.9003 3.15608L4.90756 3.43517C4.91265 3.53442 4.91185 3.63393 4.90514 3.73307C4.89256 3.76338 4.70583 3.90397 4.64584 3.9301C4.60037 3.95048 3.83265 4.17051 3.74413 4.19141C3.72333 4.19559 3.64109 4.20918 3.56224 4.22016C3.37938 4.24472 3.32326 4.27608 3.18974 4.42921C3.15324 4.46817 3.11974 4.51029 3.08961 4.55516C3.08961 4.56195 3.12008 4.5677 3.1583 4.5677C3.2178 4.5677 3.23038 4.57293 3.25505 4.60324C3.27972 4.63356 3.28166 4.65916 3.28166 4.7778C3.28166 5.01455 3.23957 5.05532 2.9498 5.10183C2.88182 5.11214 2.81446 5.1268 2.74808 5.14573C2.69702 5.19477 2.65214 5.25082 2.61456 5.31245C2.49217 5.49223 2.19369 5.81522 2.09211 5.87793C2.02341 5.92027 1.98907 5.96417 2.0031 5.98873C2.01712 6.01329 2.03889 6.00232 2.15451 5.90929C2.36917 5.74082 2.56944 5.55192 2.75291 5.34485L2.81629 5.26541L2.96867 5.22622C3.27779 5.14416 3.5037 5.0318 3.63722 4.89539C3.71704 4.81073 3.73107 4.78721 3.78234 4.62885C3.78621 4.61788 3.9473 4.61108 4.31979 4.60533C5.01834 4.59593 5.46049 4.56457 5.61045 4.51387C5.64591 4.50068 5.68255 4.49157 5.71978 4.4867C5.74639 4.4867 5.74784 4.48931 5.73236 4.50865C5.62176 4.60076 5.50555 4.68474 5.38454 4.76003C5.3081 4.80759 5.20023 4.90323 5.20023 4.92518C5.20023 4.93198 5.21039 4.93772 5.22296 4.93772C5.25102 4.93772 5.78218 4.61108 5.85958 4.54523C5.99068 4.43443 6.02987 4.35552 5.97762 4.30482C5.94714 4.27451 5.9128 4.27608 5.83249 4.309C5.69051 4.3625 5.54354 4.39913 5.39421 4.41823C5.27327 4.41823 5.24183 4.38531 5.23022 4.24995C5.21304 4.1095 5.17889 3.9721 5.12863 3.84125C5.10299 3.78899 5.09816 3.75658 5.09816 3.64579C5.09816 3.50938 5.11073 3.45973 5.1654 3.39597C5.18958 3.36723 5.20119 3.36566 5.36616 3.36566C5.50451 3.36566 5.54273 3.36148 5.5553 3.34528C5.55974 3.33998 5.56291 3.33359 5.56451 3.32666C5.56611 3.31973 5.56611 3.31248 5.56449 3.30556C5.54901 3.26427 4.96851 2.86655 4.73195 2.73694C4.59602 2.66168 4.57715 2.6413 4.57715 2.55924C4.57715 2.51691 4.53748 2.45472 4.51717 2.46778C4.5031 2.48851 4.49322 2.51219 4.48814 2.53729C4.48152 2.56719 4.46898 2.59519 4.45138 2.61935C4.37397 2.69304 4.09824 2.67945 3.93424 2.59321C3.87966 2.55951 3.8294 2.51822 3.78476 2.4704C3.71317 2.39827 3.69817 2.37476 3.68027 2.30368C3.65608 2.21222 3.59658 2.13278 3.55208 2.13278C3.51773 2.13278 3.5037 2.17093 3.52015 2.21744C3.54845 2.27128 3.58081 2.32249 3.6169 2.37057C3.66528 2.43643 3.70107 2.49235 3.70107 2.49653C3.70107 2.5143 3.6527 2.49653 3.57626 2.44845C3.49983 2.40036 3.35761 2.25612 3.20426 2.06745C3.1404 1.99167 3.12734 1.98644 3.09735 2.01885Z" fill="#FFC93E"/>
<path d="M0 1L56 1" stroke="#FFC93E" stroke-width="0.3"/>
<path d="M0 7L56 7" stroke="#FFC93E" stroke-width="0.3"/>
<circle cx="12" cy="4" r="2" fill="#FFC93E"/>
<circle cx="20" cy="4" r="2" fill="#FFC93E"/>
<circle cx="36" cy="4" r="2" fill="#FFC93E"/>
<circle cx="44" cy="4" r="2" fill="#FFC93E"/>
<path d="M54 4C54 5.10457 53.1046 6 52 6C50.8954 6 50 5.10457 50 4C50 2.89543 50.8954 2 52 2C53.1046 2 54 2.89543 54 4Z" fill="#FFC93E"/>
<circle cx="28" cy="4" r="2" fill="#FFC93E"/>
</svg>
