<svg width="120" height="5" viewBox="0 0 120 5" fill="none" xmlns="http://www.w3.org/2000/svg">
<rect x="1" width="3" height="4" fill="#0376B7"/>
<path d="M1 0L1 4" stroke="#0376B7" stroke-width="0.3"/>
<path d="M119 0L119 4" stroke="#0376B7" stroke-width="0.3"/>
<path d="M60 0L60 4" stroke="#0376B7" stroke-width="0.3"/>
<path d="M28.3928 0L28.3928 4" stroke="#0376B7" stroke-width="0.3"/>
<path d="M13.6428 1.33331L13.6428 3.99998" stroke="#0376B7" stroke-width="0.3"/>
<path d="M7.32141 2.66669L7.32141 4.00002" stroke="#0376B7" stroke-width="0.3"/>
<path d="M19.9642 2.66669L19.9642 4.00002" stroke="#0376B7" stroke-width="0.3"/>
<path d="M36.8214 2.66669L36.8214 4.00002" stroke="#0376B7" stroke-width="0.3"/>
<path d="M53.6786 2.66669L53.6786 4.00002" stroke="#0376B7" stroke-width="0.3"/>
<path d="M66.3214 2.66669L66.3214 4.00002" stroke="#0376B7" stroke-width="0.3"/>
<path d="M95.8214 2.66669L95.8214 4.00002" stroke="#0376B7" stroke-width="0.3"/>
<path d="M112.679 2.66669L112.679 4.00002" stroke="#0376B7" stroke-width="0.3"/>
<path d="M83.1786 2.66669L83.1786 4.00002" stroke="#0376B7" stroke-width="0.3"/>
<path d="M45.25 1.33331L45.25 3.99998" stroke="#0376B7" stroke-width="0.3"/>
<path d="M74.75 1.33331L74.75 3.99998" stroke="#0376B7" stroke-width="0.3"/>
<path d="M104.25 1.33331L104.25 3.99998" stroke="#0376B7" stroke-width="0.3"/>
<path d="M89.5 0L89.5 4" stroke="#0376B7" stroke-width="0.3"/>
<path d="M1 4L119 4" stroke="#0376B7" stroke-width="0.3"/>
</svg>
